<svg xmlns="http://www.w3.org/2000/svg" viewBox="0 0 400 400" fill="none" shape-rendering="auto" aria-hidden="true" width="512" height="512"><!-- Generated by DiceBear (https://dicebear.com) --><metadata xmlns:rdf="http://www.w3.org/1999/02/22-rdf-syntax-ns#" xmlns:xsi="http://www.w3.org/2001/XMLSchema-instance" xmlns:dc="http://purl.org/dc/elements/1.1/" xmlns:dcterms="http://purl.org/dc/terms/"><rdf:RDF><rdf:Description><dc:title>Adventurer Neutral</dc:title><dc:creator>Lisa Wischofsky</dc:creator><dc:source xsi:type="dcterms:URI">https://www.figma.com/community/file/1184595184137881796</dc:source><dcterms:license xsi:type="dcterms:URI">https://creativecommons.org/licenses/by/4.0/</dcterms:license><dc:rights>Remix of “Adventurer Neutral” (https://www.figma.com/community/file/1184595184137881796) by “Lisa Wischofsky”, licensed under “CC BY 4.0” (https://creativecommons.org/licenses/by/4.0/)</dc:rights></rdf:Description></rdf:RDF></metadata><defs><g id="eyes-variant01-fed92323"><path d="M274.25 9.85c11.85 6.92 21.04 17.51 26.71 29.97 5.93-3.13 11.67-6.68 17.68-9.63 1.8-.95 4.4.55 3.98 2.62.21 1.48-2.02 2.5-3.06 3.23-5.45 3-10.88 6.04-16.34 9.03 1.7 6.87 3.23 13.6 3.24 20.73-.06 12.85-3.69 25.61-10.87 36.3a66 66 0 0 1-31.79 25.28 66 66 0 0 1-38.5 2.03 65 65 0 0 1-40-29.6 63 63 0 0 1-9.3-33 64.4 64.4 0 0 1 15.4-42.92c9.58-11.27 23.24-19.42 37.87-21.9a65.2 65.2 0 0 1 44.98 7.83" fill="black"/><path d="M233.5 7.07a59.7 59.7 0 0 1 44.36 12.14c14.46 11.18 23.27 29.28 22.8 47.59.03 22.44-13.8 43.9-34.2 53.21-10.95 5.12-23.23 7.03-35.16 4.86a59.6 59.6 0 0 1-40.74-27.3 61.5 61.5 0 0 1-8.98-28.72 60.4 60.4 0 0 1 13.88-40.9A59.5 59.5 0 0 1 233.5 7.07" fill="white"/><path d="M74.3 23.71a55 55 0 0 1 34.44 14.65c10.09 9.4 16.54 22.67 17.29 36.47a54.6 54.6 0 0 1-8.01 32.68 55 55 0 0 1-36.73 25.17 54.94 54.94 0 0 1-63.7-42.04c-2.41-9.41-1.61-18.94.99-28.2a606 606 0 0 0-11.32-4.5c-1.9-.78-4-1.44-5.35-3.08-.4-2.4.76-3.92 3.2-3.62 5.2 1.25 10 4.21 15.18 5.57 1.4-1.65 2.24-3.8 3.3-5.68 10.03-17.8 30.32-28.73 50.7-27.4" fill="black"/><path d="M60.8 30.46c18.63-4.25 38.76 3.44 50.01 18.81a51 51 0 0 1 9.73 26.52c.67 13.6-4.44 27.48-14.06 37.18a49.4 49.4 0 0 1-30.18 14.66c-19.94 2.3-40.08-8.85-49-26.78a49.3 49.3 0 0 1 2.36-48.68 49.3 49.3 0 0 1 31.15-21.7" fill="white"/><path d="M262.58 42.23c6.24-.76 12.7.82 17.74 4.57 6.3 4.65 10.27 12.14 10.18 20.01a28 28 0 0 1-4.57 13.62c-4.1 6.13-11.27 10.06-18.6 10.54A24.6 24.6 0 0 1 246.08 81c-6.02-7.97-6.24-19.8-.63-28.03a24.7 24.7 0 0 1 17.13-10.74M92.75 55.29c7.22-.86 14.8 2 19.61 7.47a22 22 0 0 1 5.74 16.04c.04 12-10.69 22.8-22.8 22.28-12.1.1-22.88-10.05-22.87-22.26-.7-11.8 8.67-22.32 20.32-23.53" fill="black"/></g><g id="eyebrows-variant08-fed92323"><path d="M215.32.84c21.47-3.3 42.8 3.14 60.6 15.09 12.06 8.2 22.9 19.68 28.97 33.03 1.1 2.96-.3 3.73-2.5 5.27-3.96-2.26-6.88-5.58-10.48-8.29-12.95-9.78-28-16.38-43.74-20.25-14.93-3.5-30.56-5.05-45.8-2.8-4.78.41-9.28 1.92-13.97 2.67-2.42.2-5.11-1.2-4.22-4.04 1.9-4.15 4.23-8.5 7.6-11.65 6.04-5.62 15.64-7.85 23.57-9.03M67.36 77.33c13.38-.82 26.33-.6 39.03 4.23 5.85 2.37 11.52 5.9 13.93 12.05 1.38 4.31.91 8.87-1.73 12.61-4.9-.76-9.4-2.6-14.18-3.82-23.13-6.33-47.2-8.01-71.04-5.96-4.88.33-9.86 2.03-14.72 1.78-1.78-.48-1.17-2.2-.97-3.54.88-2.51 3.58-3.86 5.76-5.1 13.75-7.24 28.55-10.64 43.92-12.25" fill="black"/></g><g id="mouth-variant28-fed92323"><path d="M130.69 16.19c.5 6.88-.8 13.42-1.56 20.2a245 245 0 0 1-19.15 70.24c-3.65 7.33-6.74 15.74-13.95 20.34-4.25 3.06-10.3 1.77-14.6-.52-9.5-4.69-15.15-12.28-21.77-20.2-10.97-13.4-18.86-28.33-26.05-44.01-3.56-8.2-6.83-16.5-10.25-24.74-.87-2.13-1.17-4.1 1.07-5.43 4.72 0 9.3 1.5 14.06 1.5 9.29.25 18.74.4 27.98-.81 19.98-2.29 39.64-8.3 57.99-16.44 2.13-1.07 4.03-.6 6.23-.13" fill="black"/><path d="M125.42 22.39c-1.93 15.16-3.98 30.2-8.01 44.98-4.69 16.77-10.27 33.84-19.05 48.96-2.17 3.44-5.3 7.34-9.89 6.51-7.43-1.55-14.07-8-18.68-13.73-9.88-10.97-17.9-23.26-24.61-36.38-6.13-11.12-10.64-22.89-15.7-34.52 4.8.44 9.6.8 14.4 1.2 1.14 5.94 4.6 11.51 8.46 16.07 5.08 5.94 12.23 9.8 20.13 9.97a28 28 0 0 0 16.68-7.36c8.02-7.35 11.96-17.07 14.48-27.43 7.4-2.48 14.64-5.15 21.8-8.27" fill="#8F2E45"/><path d="M97.14 32.52c-2.55 8.79-7.09 18.39-14.95 23.59-5.47 3.77-12.7 4.4-18.57 1.12-7-3.86-10.9-10.5-13.93-17.65 16.1-.33 32.01-2.32 47.45-7.06" fill="white"/></g><g id="glasses-variant05-fed92323"><path fill-rule="evenodd" clip-rule="evenodd" d="M294.49 30.7c12.76.74 25.74 1.85 37.38 7.58 1.16.52 2.25 1.22 3.34 1.9a21 21 0 0 0 4.29 2.3c2.3.37 4.64.45 7 .52 2.67.09 5.35.18 7.95.7 2.16.77 2.3 2.83 2.42 4.8v1c-.02 2.19-.04 4.24-2.33 5.37-2.21.25-4.46.24-6.7.23h-3.17c1.26 18.16-2.42 36.45-11.5 52.28-9.66 17.1-25.26 30.69-43.86 37.21a79 79 0 0 1-34.82 4 81.4 81.4 0 0 1-42.57-18.29 88.7 88.7 0 0 1-28.74-44.53c-.9-2.9-1.46-5.9-2.02-8.9-.6-3.26-1.2-6.5-2.24-9.6-1.98-5.44-10.5-8.8-14.51-3.67-3.27 3.71-3.25 8.07-3.22 12.58q.03 1.75-.03 3.52c-.81 27-17.12 53.13-41.27 65.37-14.13 7.32-30.77 9.4-46.2 5.33a62 62 0 0 1-30.72-19.19c-10.8-12.27-16.55-28.94-16.8-45.18q-.75-.17-1.48-.24c-1.41-.17-2.72-.33-3.35-1.96l-.07-.46c-.32-2.13-.83-5.46 1.42-6.47q1.5-.73 3.05-1.33c2.19-.89 4.33-1.76 6.2-3.46 10.62-9.27 24.1-13.95 37.58-17.36a152 152 0 0 1 68.93-.9c5.82 1.4 12.08 1.6 17.77-.42 7.08-2.38 14.84-3.5 22.28-2.54 5.8.56 11.89.35 17.36-1.87 12.15-4.65 23.96-9.15 36.6-12.3a202 202 0 0 1 62.03-6m-25 12.94c17.65-.96 36.07-.78 53.28 3.73 7.14 1.68 13.37 8.1 14.26 15.47 1.3 7.9.28 15.57-1.36 23.32A80.6 80.6 0 0 1 311 125.22c-10.5 9.05-23.72 15.36-37.5 17.2-14.95 2.31-30.74-.6-44.13-7.6-14-7.23-25.74-19.06-33.2-32.9-5.27-10.7-8.3-23.62-6.34-35.5A98 98 0 0 1 210 56.12c18.9-7.2 39.37-10.9 59.48-12.48M134.7 63.45a140 140 0 0 0-34.7-1.91c-15.93 1.2-31.36 3.7-46.4 9.3-5.21 2.05-10.6 4.53-15.03 7.98-4.12 2.85-5.47 9.18-5.7 13.85.34 8.92 3.65 17.87 8.05 25.57 7.92 13.73 21.5 23.9 37.06 27.1 9.83 2.21 19.96 1.39 29.55-1.56 26.32-8.35 46.38-34.3 46.64-62.1-.1-3.35-.62-6.77-1.45-10.01-.29-1.63-1.75-2.47-3.1-3.25l-.58-.34c-4.48-2.23-9.46-3.64-14.35-4.62" fill="black"/></g><clipPath id="clip-fed92323"><rect width="400" height="400" rx="0" ry="0"/></clipPath></defs><g clip-path="url(#clip-fed92323)"><rect width="400" height="400" fill="#763900"/><use transform="translate(36.7 101.2)" href="#eyes-variant01-fed92323"/><use transform="translate(36.64 29.5)" href="#eyebrows-variant08-fed92323"/><use transform="translate(114.51 217.6)" href="#mouth-variant28-fed92323"/><use transform="translate(15.51 93.31)" href="#glasses-variant05-fed92323"/></g></svg>