<svg xmlns="http://www.w3.org/2000/svg" viewBox="0 0 400 400" fill="none" shape-rendering="auto" aria-hidden="true" width="512" height="512"><metadata xmlns:rdf="http://www.w3.org/1999/02/22-rdf-syntax-ns#" xmlns:xsi="http://www.w3.org/2001/XMLSchema-instance" xmlns:dc="http://purl.org/dc/elements/1.1/" xmlns:dcterms="http://purl.org/dc/terms/"><rdf:RDF><rdf:Description><dc:title>Adventurer Neutral</dc:title><dc:creator>Lisa Wischofsky</dc:creator><dc:source xsi:type="dcterms:URI">https://www.figma.com/community/file/1184595184137881796</dc:source><dcterms:license xsi:type="dcterms:URI">https://creativecommons.org/licenses/by/4.0/</dcterms:license><dc:rights>Remix of “Adventurer Neutral” (https://www.figma.com/community/file/1184595184137881796) by “Lisa Wischofsky”, licensed under “CC BY 4.0” (https://creativecommons.org/licenses/by/4.0/)</dc:rights></rdf:Description></rdf:RDF></metadata><defs><g id="eyes-variant24-2ec1719f"><path d="M235.56 1.08c22.14-1.95 44.44 7.9 57.7 25.75a66 66 0 0 1 13.21 39.97c-.27 12.75-4.02 25.34-11.26 35.89-8.84 13.1-22.73 23-38.1 26.7a65.2 65.2 0 0 1-73.3-32.14c-7.1-12.8-9.22-27.78-6.92-42.2A65.3 65.3 0 0 1 235.6 1.08" fill="black"/><path d="M233.57 7.06a59.6 59.6 0 0 1 44.3 12.15c14.43 11.15 23.27 29.32 22.8 47.6.04 22.94-14.45 44.83-35.56 53.81-10.61 4.63-22.4 6.3-33.81 4.22a59.6 59.6 0 0 1-40.35-26.68 61.4 61.4 0 0 1-9.37-29.3 60.4 60.4 0 0 1 13.4-40.37 59.5 59.5 0 0 1 38.6-21.48" fill="white"/><path d="M65.55 23.9a55 55 0 0 1 58.67 39.98 55 55 0 0 1-26.76 63.08 54.6 54.6 0 0 1-33.17 6.14c-15.78-1.82-30.34-11-39-24.28-5.58-8.32-8.51-18.03-9.15-27.97-.31-12.55 3.4-25.1 10.99-35.17a55 55 0 0 1 38.4-21.78" fill="black"/><path d="M62.56 30.09a49 49 0 0 1 32.85 5.6c17.73 9.8 28.17 31.02 24.42 51.03a49.54 49.54 0 0 1-44.53 41.02c-20.15 1.85-40.17-9.84-48.64-28.18a49.3 49.3 0 0 1 5.04-50.33A49.4 49.4 0 0 1 62.56 30.1" fill="white"/><path d="M210.77 44.29c12.02-2.86 24.89 4.24 29.36 15.65 2.21 6 2.32 12.7-.08 18.66a25.6 25.6 0 0 1-19.7 15.97 25.7 25.7 0 0 1-22.47-7.35 25.7 25.7 0 0 1-5.46-27.34 25.5 25.5 0 0 1 18.35-15.6M82.56 55.15c12.27-2.56 24.75 5.8 27.12 18.08.66 5.63.55 11.35-2.68 16.22-4.8 8-14.36 12.76-23.63 11.14-10.66-1.71-19-10.97-19.33-21.8a23.04 23.04 0 0 1 18.52-23.64" fill="black"/></g><g id="eyebrows-variant03-2ec1719f"><path d="M140.37 28.87c2.26-.07 2.85 1.7 2.65 3.64-.5 4.68-.77 9.78-2.32 14.23-1.33.4-2.66.58-4.03.82-1.12-4.8 0-10.22.71-15.1.36-1.7.77-3.81 3-3.6m20.77 6.29c.03 3.2-.36 6.36-.67 9.55 41.7.52 83.32.38 125.01.75 2.13.04 3.96.86 5.9 1.64-.6 1.48-.23 3.83-2.25 4.09-8.05 1.3-16.58.52-24.74.88-17.35.62-34.7 1-52.06 1.53-17.03.2-34 1.25-51.05 1.42-3.33.4-6.09-2.72-7.24-5.47.02-4.5 1.02-9.15 2.06-13.5 1.28-2.48 2.83-1.67 5-.9m-36.94 5.54c-.1 4.87-.05 10.81-2.28 15.24-3.22 1.5-7.12 1.79-10.6 2.47-25.64 4.7-51.3 9.35-76.95 14.1-4.24.68-8.7 2.14-13 2.03-2.62-.48-3.32-3.75-.86-5 3.2-1.42 6.94-1.75 10.32-2.59 29.1-6.7 58.15-13.6 87.24-20.32q.58-2.86 1.27-5.7c1.6-.2 3.23-.24 4.85-.23" fill="black"/></g><g id="mouth-variant05-2ec1719f"><path d="M132.49 20c18-.01 37.23 2.15 53.99 9.09-52.2 7.17-107.15 15.07-158.98 22.2 8.03-7 17.68-12.32 27.44-16.47 12.23-5.1 26.26-9.18 39.6-7.43q1.46.23 2.62-.34c10.24-5.91 23.77-6.7 35.33-7.05" fill="#D31E1E"/><path d="M186.48 29.09c2.42 1 1.92 3.4 1.38 5.45-6.78 13.35-16.08 25.18-28.35 33.9-17.2 12.49-38.88 18.4-60.02 17.58-26.81-.96-53.07-12.04-73.44-29.3-.4-2.43-.5-3.72 1.45-5.43 51.83-7.13 106.78-15.03 158.98-22.2" fill="black"/><path d="M187.86 34.54c-1.1 4.6-1.85 9.19-3.65 13.62-5.36 13.94-16.05 25.4-28.38 33.56-13.59 8.87-29.26 14.15-45.36 15.89-19.66 2.1-40.79-1.09-58-11.18-11.77-6.82-21.38-17-26.42-29.72 20.37 17.27 46.63 28.35 73.44 29.3 21.14.83 42.83-5.08 60.02-17.57 12.27-8.72 21.57-20.55 28.35-33.9" fill="#D31E1E"/><path d="M180.35 35.91a83.4 83.4 0 0 1-36.37 35 89 89 0 0 1-40.49 9.18c-24.7.18-49-9.01-68.58-23.87 47.93-6.59 97.73-13.8 145.44-20.31" fill="white"/></g><clipPath id="clip-2ec1719f"><rect width="400" height="400" rx="0" ry="0"/></clipPath></defs><g clip-path="url(#clip-2ec1719f)"><rect width="400" height="400" fill="#9e5622"/><use transform="translate(36.7 101.2)" href="#eyes-variant24-2ec1719f"/><use transform="translate(36.64 29.5)" href="#eyebrows-variant03-2ec1719f"/><use transform="translate(114.51 217.6)" href="#mouth-variant05-2ec1719f"/></g></svg>