<svg xmlns="http://www.w3.org/2000/svg" viewBox="0 0 400 400" fill="none" shape-rendering="auto" aria-hidden="true" width="512" height="512"><!-- Generated by DiceBear (https://dicebear.com) --><metadata xmlns:rdf="http://www.w3.org/1999/02/22-rdf-syntax-ns#" xmlns:xsi="http://www.w3.org/2001/XMLSchema-instance" xmlns:dc="http://purl.org/dc/elements/1.1/" xmlns:dcterms="http://purl.org/dc/terms/"><rdf:RDF><rdf:Description><dc:title>Adventurer Neutral</dc:title><dc:creator>Lisa Wischofsky</dc:creator><dc:source xsi:type="dcterms:URI">https://www.figma.com/community/file/1184595184137881796</dc:source><dcterms:license xsi:type="dcterms:URI">https://creativecommons.org/licenses/by/4.0/</dcterms:license><dc:rights>Remix of “Adventurer Neutral” (https://www.figma.com/community/file/1184595184137881796) by “Lisa Wischofsky”, licensed under “CC BY 4.0” (https://creativecommons.org/licenses/by/4.0/)</dc:rights></rdf:Description></rdf:RDF></metadata><defs><g id="eyes-variant11-de959ff2"><path d="M240.3.87a65.3 65.3 0 0 1 38.2 11.72 66.4 66.4 0 0 1 25.56 35.7c2.03 8.4 3.26 17.7 1.73 26.3-.34 2.64-3.16 3.55-5.48 3.7-22.92 1.12-45.41 3.72-68.02 6.37-13.2.92-26.2 2.8-39.3 4.54-4.57.55-8.58 1.7-13.07-.02-4.7-13.26-5.45-27.76-1.52-41.3a65 65 0 0 1 25.5-35.45A65 65 0 0 1 240.31.86" fill="black"/><path d="M250.49 7.28a60 60 0 0 1 38.69 23.6 59.7 59.7 0 0 1 11.5 36.92c-.17 1.36.17 3.47-.68 4.57-4.17.71-8.5.77-12.7 1.15-18.38 1.14-36.61 3.35-54.88 5.53 1.3-3.37 2.51-6.57 2.63-10.23.4-9.56-5.03-18.9-13.67-23.1-7.93-4.1-18.77-3.17-25.87 2.3-6.37 4.72-10.35 12.81-9.79 20.78 0 6.01 2.6 11.23 6.37 15.74q-3.66.36-7.3.75a58.8 58.8 0 0 1 1.85-43.1 59.2 59.2 0 0 1 32.7-31.5c9.9-4.1 20.6-4.88 31.15-3.49" fill="white"/><path d="M100.22 31.87a55 55 0 0 1 22.55 27.5 55.8 55.8 0 0 1 1.31 34.35c-3.96 1.23-7.72.76-11.78.75-25.4-.28-50.64-.3-76 1.43-5.57-.31-13 1.8-17.82-1.36-1.63-6.9-2.98-13.6-2.05-20.72A55.2 55.2 0 0 1 31.3 40.78a55 55 0 0 1 32-16.6 55.2 55.2 0 0 1 36.93 7.7" fill="black"/><path d="M94.75 35.32c18.96 10.09 29.6 32.88 24.63 53.87q-2.84.03-5.67.13c2.5-4.85 3.78-10.11 2.82-15.56-1.25-8.23-7.5-15.16-15.4-17.62a23.6 23.6 0 0 0-14.04.47c-8.3 3.06-14.47 11.22-14.46 20.19-.3 4.37 1.04 8.24 2.82 12.14-15.4.07-30.77 1.03-46.16 1.93-1.84-.18-5.91.57-6.22-1.9-4.42-18.7 3.55-39.04 19.1-50.21 15.14-11.12 36.08-12.56 52.5-3.44" fill="white"/></g><g id="eyebrows-variant03-de959ff2"><path d="M140.37 28.87c2.26-.07 2.85 1.7 2.65 3.64-.5 4.68-.77 9.78-2.32 14.23-1.33.4-2.66.58-4.03.82-1.12-4.8 0-10.22.71-15.1.36-1.7.77-3.81 3-3.6m20.77 6.29c.03 3.2-.36 6.36-.67 9.55 41.7.52 83.32.38 125.01.75 2.13.04 3.96.86 5.9 1.64-.6 1.48-.23 3.83-2.25 4.09-8.05 1.3-16.58.52-24.74.88-17.35.62-34.7 1-52.06 1.53-17.03.2-34 1.25-51.05 1.42-3.33.4-6.09-2.72-7.24-5.47.02-4.5 1.02-9.15 2.06-13.5 1.28-2.48 2.83-1.67 5-.9m-36.94 5.54c-.1 4.87-.05 10.81-2.28 15.24-3.22 1.5-7.12 1.79-10.6 2.47-25.64 4.7-51.3 9.35-76.95 14.1-4.24.68-8.7 2.14-13 2.03-2.62-.48-3.32-3.75-.86-5 3.2-1.42 6.94-1.75 10.32-2.59 29.1-6.7 58.15-13.6 87.24-20.32q.58-2.86 1.27-5.7c1.6-.2 3.23-.24 4.85-.23" fill="black"/></g><g id="mouth-variant02-de959ff2"><path d="M131.52 24.07q.62 1.17 1.14 2.37c.47 2.66-1.95 3.3-3.81 4.34-3.98 1.77-8.05 3.4-12.12 4.98-17.66 6.32-35.4 11.11-54.24 11.94-6.5.5-12.94.62-19.44.04-4.9-.57-10.15-.63-14.87-2.03-2.35-.88-2.73-3.93-.4-5.07 2.68-.12 5.48.83 8.18 1.02 7.2.9 14.3.61 21.54.61 22.49-.76 45.02-6.8 65.7-15.48 2.76-1.2 5.22-2.6 8.32-2.75" fill="black"/></g><g id="glasses-variant03-de959ff2"><path d="M205.79 91.95a28 28 0 0 1 31.01-.55c7.34 4.5 12.1 12.74 12.79 21.28.97 9.95-4.2 20.2-12.55 25.62-6.5 4.08-14.6 5.58-22.07 3.66-11.77-2.85-20.88-13.75-20.98-25.94-8.63-10.18-25.54-13.93-36.48-5.26-3.23 2.99-6.6 7.32-6.74 11.9-1.66 12.2-12 22.16-24.27 23.28-12.14 1.5-24.5-6.08-28.61-17.62-4.63-11.86-.12-25.8 10.5-32.77a28 28 0 0 1 25.7-2.42c7.76 3.1 13.22 9.62 16 17.4 5.32-6.87 13.8-10.32 22.4-10.1 8.25-.07 15.45 3.28 21.98 8.05 1.86-6.67 5.57-12.57 11.32-16.53m-62.2 17.62c-3.85-8.7-13.5-14.16-22.92-12.75a22.1 22.1 0 0 0-17.14 12.87 22 22 0 0 0 4.56 24.43 22.1 22.1 0 0 0 23.6 4.82c6.79-2.63 12.25-9 13.4-16.26.5-4.56.69-8.92-1.5-13.11m89.86-13.84a22.8 22.8 0 0 0-19.29-1.93 22.5 22.5 0 0 0-14.07 26.89c2.88 11.15 14.57 18.56 25.9 16.28 9.69-1.97 17.45-10.3 18.07-20.26.82-8.3-3.48-16.7-10.61-20.98" fill="black"/></g><clipPath id="clip-de959ff2"><rect width="400" height="400" rx="0" ry="0"/></clipPath></defs><g clip-path="url(#clip-de959ff2)"><rect width="400" height="400" fill="#ecad80"/><g transform="translate(400, 0) scale(-1, 1)"><use transform="translate(36.7 101.2)" href="#eyes-variant11-de959ff2"/><use transform="translate(36.64 29.5)" href="#eyebrows-variant03-de959ff2"/><use transform="translate(114.51 217.6)" href="#mouth-variant02-de959ff2"/><use transform="translate(15.51 93.31)" href="#glasses-variant03-de959ff2"/></g></g></svg>