<?xml version="1.0" encoding="UTF-8" standalone="no"?>
<svg
   version="1.1"
   id="Layer_1"
   x="0px"
   y="0px"
   viewBox="0 0 122.88 71.4"
   style="enable-background:new 0 0 122.88 71.4"
   xml:space="preserve"
   sodipodi:docname="mslip.svg"
   inkscape:version="1.4.4 (dcaf3e7d9e, 2026-05-05)"
   xmlns:inkscape="http://www.inkscape.org/namespaces/inkscape"
   xmlns:sodipodi="http://sodipodi.sourceforge.net/DTD/sodipodi-0.dtd"
   xmlns="http://www.w3.org/2000/svg"
   xmlns:svg="http://www.w3.org/2000/svg"><defs
     id="defs1" /><sodipodi:namedview
     id="namedview1"
     pagecolor="#ffffff"
     bordercolor="#999999"
     borderopacity="1"
     inkscape:showpageshadow="0"
     inkscape:pageopacity="0"
     inkscape:pagecheckerboard="0"
     inkscape:deskcolor="#d1d1d1"
     showgrid="false"
     inkscape:zoom="6.3483946"
     inkscape:cx="44.499439"
     inkscape:cy="21.501499"
     inkscape:window-width="1920"
     inkscape:window-height="1011"
     inkscape:window-x="1920"
     inkscape:window-y="32"
     inkscape:window-maximized="1"
     inkscape:current-layer="Layer_1" /><g
     id="g1"><path
       d="M0.15,35.23L0,10.26c0-0.05,0-0.09,0.01-0.14V0.2C0.01,0.09,0.1,0,0.21,0h122.48c0.11,0,0.19,0.09,0.19,0.19V10.2l0,0.05 v25.47c0,0.69-0.53,1.26-1.21,1.33c-11.14,1.39-19.89,4.91-26.35,10.49c-6.45,5.56-10.66,13.2-12.74,22.82 c-0.13,0.62-0.69,1.05-1.3,1.05v0H41.6c-0.66,0-1.21-0.48-1.31-1.12c-2.56-10.37-7.36-17.98-13.96-23.4 c-6.65-5.45-15.15-8.7-25.05-10.3C0.6,36.48,0.13,35.89,0.15,35.23L0.15,35.23z M45.27,11.58c0.2,9.18-0.91,16.7-3.03,22.81 c-2.23,6.43-5.56,11.29-9.66,14.83c4.53,5.09,7.95,11.51,10.05,19.51h37.58c1.85-7.87,5.12-14.47,9.84-19.75 c-3.89-3.37-7.03-7.88-9.19-13.81c-2.26-6.21-3.43-13.97-3.22-23.59H45.27L45.27,11.58z M30.74,47.29 c3.81-3.26,6.92-7.76,8.99-13.76c2.02-5.83,3.07-13.07,2.88-21.95H2.66L2.8,34.15c9.88,1.73,18.43,5.12,25.21,10.68 C28.95,45.61,29.87,46.43,30.74,47.29L30.74,47.29z M80.31,11.58c-0.21,9.3,0.9,16.76,3.06,22.68c2.01,5.52,4.93,9.7,8.54,12.79 c0.54-0.53,1.1-1.04,1.68-1.54c6.65-5.73,15.5-9.42,26.63-10.97V11.58H80.31L80.31,11.58z"
       id="path1" /></g><path
     style="fill:#e9c46a;stroke:#000000;stroke-width:0.219848;paint-order:markers stroke fill;fill-opacity:1"
     d="m 42.626271,68.456568 c 0,-0.545211 -1.72301,-5.578094 -2.619934,-7.652782 -1.597086,-3.694244 -3.793875,-7.349273 -6.152929,-10.237271 l -1.086643,-1.330289 1.720509,-1.759889 c 1.967815,-2.012854 3.271689,-3.728061 4.753912,-6.253623 3.911926,-6.665538 6.111712,-16.281791 6.111712,-26.717038 v -2.872067 h 16.087101 16.0871 v 2.530392 c 0,7.225419 0.999336,14.200891 2.839824,19.822289 1.762557,5.383367 4.536813,10.059996 8.036859,13.547923 l 1.459265,1.454216 -0.910937,1.090636 c -3.451799,4.132738 -6.604182,10.392536 -8.238635,16.35975 l -0.597471,2.181302 -18.744865,0.04629 c -16.025226,0.03958 -18.744868,0.0091 -18.744868,-0.209841 z"
     id="path2" /><path
     style="fill:#264653;fill-opacity:1;stroke:#000000;stroke-width:0.219848;paint-order:markers stroke fill"
     d="M 40.770943,70.93775 C 40.61931,70.762791 40.20363,69.589131 39.847207,68.329616 37.72932,60.845465 34.335647,54.692054 29.652138,49.843915 23.334462,43.304165 15.02005,39.171058 3.6556034,36.921 1.7514911,36.544002 0.84550363,36.281559 0.59972659,36.035781 0.26034421,35.696399 0.24939762,35.178611 0.21607573,17.888659 L 0.18177514,0.09088757 H 61.439999 122.69822 l 0.0487,17.90485143 c 0.0505,18.553987 0.0495,18.580601 -0.67606,18.810903 -0.16305,0.05175 -1.53933,0.298057 -3.0584,0.547352 -19.787857,3.247388 -31.586884,13.418625 -36.059032,31.084348 -0.303714,1.199716 -0.679987,2.324449 -0.836164,2.499408 -0.267242,0.29938 -1.484427,0.318106 -20.677315,0.318106 -19.196035,0 -20.409544,-0.01867 -20.669056,-0.318106 z m 39.660652,-2.817515 c 0.105535,-0.424899 0.640948,-2.163855 1.189809,-3.864347 1.634748,-5.064813 4.371607,-10.202884 7.373923,-13.843508 0.590842,-0.716457 1.074257,-1.373974 1.074257,-1.461152 0,-0.08718 -0.357714,-0.457513 -0.794917,-0.822972 -1.113615,-0.930867 -3.438974,-3.74301 -4.699897,-5.68376 -4.433263,-6.823463 -6.856393,-16.81784 -6.864098,-28.311479 l -0.0018,-2.681183 H 61.467367 45.225859 l -0.116047,4.408047 c -0.193428,7.347321 -0.971719,12.346826 -2.780238,17.859408 -1.835094,5.593587 -4.55875,10.179461 -8.274346,13.931683 l -1.572701,1.588204 1.286827,1.601476 c 3.516407,4.376231 6.347348,9.825937 8.055511,15.507276 0.345678,1.149727 0.664842,2.192662 0.709252,2.317633 0.06389,0.179792 4.007476,0.227219 18.89317,0.227219 H 80.239713 Z M 33.504615,44.698971 c 4.700772,-5.3967 7.460944,-12.307409 8.668851,-21.704415 0.309516,-2.407912 0.604582,-8.860352 0.4842,-10.588402 l -0.06648,-0.95432 H 22.612095 2.6330081 l 0.04681,11.40639 0.046809,11.406391 0.4544378,0.05731 c 1.0744385,0.135492 4.8292201,1.022511 7.1801181,1.696211 5.098543,1.461096 10.220482,3.780514 14.178461,6.420569 1.886103,1.258071 5.036919,3.767086 5.799678,4.618321 l 0.346422,0.386607 0.744229,-0.608642 c 0.409325,-0.334751 1.342913,-1.29596 2.074642,-2.136016 z m 59.764511,1.272875 c 4.831923,-4.269209 10.842504,-7.438262 17.878604,-9.42642 2.44641,-0.691271 6.31666,-1.524816 8.14221,-1.753607 l 0.95432,-0.119603 V 23.062025 11.451834 H 100.24899 80.253726 l 0.0019,3.317396 c 0.0039,6.926595 0.928167,13.251328 2.729381,18.677396 0.745618,2.246134 2.630315,6.162954 3.825192,7.949596 1.564101,2.338725 4.545564,5.662089 5.095638,5.679983 0.06015,0.002 0.673642,-0.495005 1.363313,-1.104359 z"
     id="path3" /><path
     style="fill:#4b9d90;fill-opacity:1;stroke:#000000;stroke-width:0.219848;paint-order:markers stroke fill"
     d="M 90.251928,45.307455 C 87.513104,42.34454 85.784076,39.625422 84.088446,35.614595 81.850193,30.32025 80.711486,24.06581 80.491827,15.859881 l -0.113129,-4.226272 h 19.841892 19.84189 v 11.410354 11.410354 l -2.42606,0.415125 c -9.49247,1.624267 -18.039168,5.351268 -23.996895,10.464441 -0.885858,0.760282 -1.717467,1.382329 -1.848019,1.382329 -0.130553,0 -0.823363,-0.633941 -1.539578,-1.408757 z"
     id="path4" /><path
     style="fill:#4b9d90;fill-opacity:1;stroke:#000000;stroke-width:0.11109;paint-order:markers stroke fill"
     d="M 29.805878,46.321563 C 23.238243,40.380675 15.614759,36.765911 4.8432937,34.48526 4.021333,34.311226 3.2531211,34.168834 3.1361559,34.168834 H 2.923492 L 2.86256,28.037733 C 2.8290474,24.665627 2.801594,19.602302 2.8015525,16.785899 l -7.55e-5,-5.120733 h 19.839968 19.839968 l 0.0059,0.803703 c 0.05143,7.025862 -0.448598,12.05457 -1.706941,17.16663 -1.543221,6.269385 -4.066603,11.239907 -7.828041,15.419561 -0.904301,1.004846 -2.036505,2.068961 -2.192179,2.060343 -0.04492,-0.0025 -0.474332,-0.359714 -0.954257,-0.79384 z"
     id="path7" /></svg>
