<svg xmlns="http://www.w3.org/2000/svg" viewBox="0 0 400 400" fill="none" shape-rendering="auto" aria-hidden="true" width="512" height="512"><metadata xmlns:rdf="http://www.w3.org/1999/02/22-rdf-syntax-ns#" xmlns:xsi="http://www.w3.org/2001/XMLSchema-instance" xmlns:dc="http://purl.org/dc/elements/1.1/" xmlns:dcterms="http://purl.org/dc/terms/"><rdf:RDF><rdf:Description><dc:title>Adventurer Neutral</dc:title><dc:creator>Lisa Wischofsky</dc:creator><dc:source xsi:type="dcterms:URI">https://www.figma.com/community/file/1184595184137881796</dc:source><dcterms:license xsi:type="dcterms:URI">https://creativecommons.org/licenses/by/4.0/</dcterms:license><dc:rights>Remix of “Adventurer Neutral” (https://www.figma.com/community/file/1184595184137881796) by “Lisa Wischofsky”, licensed under “CC BY 4.0” (https://creativecommons.org/licenses/by/4.0/)</dc:rights></rdf:Description></rdf:RDF></metadata><defs><g id="eyes-variant04-d8780d9a"><path d="M60.26 24.7a55.3 55.3 0 0 1 37.42 5.68c11.97 6.48 20.98 17.4 25.57 30.15 2.7.16 5.36.38 8.03.75-.2 1.27-.35 2.5-.7 3.75-1.48 1.08-3.74 1.17-5.48 1.64 1.33 8.86 1.68 17.54-.78 26.25a54.8 54.8 0 0 1-59.8 40.22 54.8 54.8 0 0 1-39.64-24.94c-6.25-9.68-8.98-21.04-8.76-32.5q-3.62-.02-7.23-.28c.28-1.34 0-3.77 1.3-4.57 2.1-.67 4.4-.79 6.6-1.1 1.4-6.55 3.33-12.88 6.76-18.67a55 55 0 0 1 36.7-26.38M219.81 4.4a66 66 0 0 1 39.02-1.1 65 65 0 0 1 38.46 29.54c2.77 4.52 4.47 9.37 6.55 14.2 4.45-.5 8.76-.85 13.15.28-.56 1.45-.36 3.52-2.04 4.17-3.13.83-6.5.88-9.7 1.25.53 4.72 1.27 9.3 1.2 14.07a66 66 0 0 1-10.06 34.07 65.8 65.8 0 0 1-34.04 27.01 66 66 0 0 1-37 1.54 65.2 65.2 0 0 1-40.44-30.25c-6.68-11.07-9.48-23.83-8.92-36.7-3.26.21-6.64.76-9.9.45-2.37-.45-1.95-2.6-2.64-4.46a76 76 0 0 1 13.04-1.93c1.33-6.97 3.22-13.74 6.5-20.06A66 66 0 0 1 219.8 4.4M71.3 29.35C53.12 29.15 35.7 39.78 27.47 56c-2.2 4.2-3.57 8.7-4.72 13.28 13.2-.88 26.37-2.28 39.57-3.22 7.7-.18 15.27-1.58 22.97-1.71 10.73-.82 21.55-1.33 32.16-3.13-7.08-18.8-25.97-32.08-46.15-31.86M271.34 14.8c-13.32-7.98-29.57-10.1-44.6-6.47A59.5 59.5 0 0 0 191.2 33.7c-4.25 6.8-7.73 14.51-8.83 22.5 10.8-1.19 21.62-1.58 32.42-2.62 8.43-.76 16.96-.77 25.39-1.78 19.2-1.3 38.45-2.84 57.65-4.33-4.82-13.64-13.95-25.42-26.54-32.68" fill="black"/><path d="M299.43 53.2c1.8 9.43 1.83 19.44-.85 28.7a59.8 59.8 0 0 1-26.86 35.35c-11.86 6.95-25.9 9.98-39.53 7.74a59.7 59.7 0 0 1-40.12-25.03c-7.64-11.07-11.15-24.46-10.6-37.86l8.33-.81c.58 6.88 2.87 13.16 8.1 17.84 9.27 8.79 25.13 8.57 33.96-.73 5.69-5.52 7.55-12.65 7.14-20.42 4.5-.5 8.95-1.1 13.47-1.4 15.64-.92 31.25-2.53 46.9-3.4M115.24 67.6c1.23-.4 2.5-.65 3.76-.96 3.25 11.9 1.3 24.64-4.48 35.44a49.5 49.5 0 0 1-33.98 24.89c-17.42 3.66-36.18-3.36-47.37-17.1-8.1-9.7-11.84-22.11-11.2-34.67 16.44-1.61 32.95-2.6 49.36-4.4.17 5.55 1.15 10.78 4.7 15.19a22.3 22.3 0 0 0 23.43 7.93c7.1-2.26 13-7.85 15.03-15.1 1.18-3.81.53-7.35.7-11.21" fill="white"/></g><g id="eyebrows-variant10-d8780d9a"><path d="M229.39 27c24.7.94 48.04 8.97 69.45 21 2.26 1.31 4.92 2.48 6.8 4.32 1.3 2.4-.39 5.13-3.2 4.19-16.59-6.21-33.57-9.63-51.07-12.02-20.3-2.34-39.92-3.68-60.2-.13-3.2.44-6.87 2.16-10.08 1.6-2.66-1.7-1.2-6.1 1.29-7.38 13.63-9.33 30.79-12.1 47-11.58M92.35 45.42c3.5.64 6.6 1.92 9.63 3.78q-.23 1.8-.33 3.62c-2.7.74-5.46 1.12-8.24 1.34-13.17 1.15-26.45 5.11-38.81 9.7-12.23 4.74-24.78 10.63-35.2 18.7-2.81 2.03-4.12 4.82-8.07 4.47q-.75-1.36-1.51-2.67c.89-1.6 1.68-3.17 2.76-4.64 9.55-13.17 23.64-23.22 38.6-29.35 12.7-5.15 27.62-8.05 41.17-4.95" fill="black"/></g><g id="mouth-variant27-d8780d9a"><path d="M130.65 16.26c.6 6.97-.81 13.29-1.53 20.14a244 244 0 0 1-19.15 70.23c-3.65 7.33-6.72 15.74-13.94 20.34-3.86 2.8-9.11 1.94-13.2.16-4.48-2.23-8.94-4.98-12.4-8.63a171 171 0 0 1-29.95-42.13C33.72 63.83 28.83 50.6 23.36 37.5c-.92-2.1-1.13-4.11 1.07-5.43 4.38-.1 8.65 1.4 13.06 1.45 9.89.33 19.99.52 29.8-.88 17.7-2.04 35.1-7.15 51.55-13.9 4.22-1.53 7.13-4.3 11.81-2.48" fill="black"/><path d="M125.41 22.4c-2.1 16.35-4.16 32.05-8.89 47.96-9.07-.7-18.45 2.6-26.46 6.6-10.54 5.5-21.2 13.5-27.26 23.9-7.57-9.81-13.74-20.42-19.35-31.44-5.4-10.14-9.36-20.75-13.97-31.24 9.45.8 18.49 2.05 27.99 1 23.21-.72 46.69-7.68 67.94-16.78" fill="#8F2E45"/><path d="M114.68 76.5c-3.83 13.3-8.82 26.4-15.55 38.52-1.62 2.9-3.68 5.84-6.7 7.4-4.1 1.7-9.13-1.2-12.46-3.5-5.34-3.39-8.58-8.3-12.86-12.76 1.94-5.34 6.21-9.98 10.4-13.7 7.82-6.68 17.1-12.04 26.99-14.9 3.34-1.04 6.72-1.16 10.18-1.06" fill="#EA869E"/></g><clipPath id="clip-d8780d9a"><rect width="400" height="400" rx="0" ry="0"/></clipPath></defs><g clip-path="url(#clip-d8780d9a)"><rect width="400" height="400" fill="#ecad80"/><use transform="translate(36.7 101.2)" href="#eyes-variant04-d8780d9a"/><use transform="translate(36.64 29.5)" href="#eyebrows-variant10-d8780d9a"/><use transform="translate(114.51 217.6)" href="#mouth-variant27-d8780d9a"/></g></svg>