<svg xmlns="http://www.w3.org/2000/svg" viewBox="0 0 400 400" fill="none" shape-rendering="auto" aria-hidden="true" width="512" height="512"><metadata xmlns:rdf="http://www.w3.org/1999/02/22-rdf-syntax-ns#" xmlns:xsi="http://www.w3.org/2001/XMLSchema-instance" xmlns:dc="http://purl.org/dc/elements/1.1/" xmlns:dcterms="http://purl.org/dc/terms/"><rdf:RDF><rdf:Description><dc:title>Adventurer Neutral</dc:title><dc:creator>Lisa Wischofsky</dc:creator><dc:source xsi:type="dcterms:URI">https://www.figma.com/community/file/1184595184137881796</dc:source><dcterms:license xsi:type="dcterms:URI">https://creativecommons.org/licenses/by/4.0/</dcterms:license><dc:rights>Remix of “Adventurer Neutral” (https://www.figma.com/community/file/1184595184137881796) by “Lisa Wischofsky”, licensed under “CC BY 4.0” (https://creativecommons.org/licenses/by/4.0/)</dc:rights></rdf:Description></rdf:RDF></metadata><defs><g id="eyes-variant18-a634859d"><path d="M301.53 45.62c1.16 1.34 2.37 2.36 2.84 4.14a65.5 65.5 0 0 1-7.98 51.11 65.7 65.7 0 0 1-34.83 27.28 66 66 0 0 1-36.24 1.27 65.2 65.2 0 0 1-40.77-30.86c-7.18-12.23-9.85-26.73-8.06-40.75.53-3.4 1.75-7.26 5.57-8.1 8.6-1.52 17.56-1.33 26.27-2.26 24.3-1.5 48.65-2.37 73-2.08 6.76-.37 13.46.4 20.2.25" fill="black"/><path d="m291.39 51.08 7.45.37c3.8 14.15 1.78 29.85-5.17 42.73a59 59 0 0 1-32.1 27.84c-14.68 5.57-31.38 4.73-45.56-1.92A59.3 59.3 0 0 1 186.19 89c-4.19-10.22-5.98-22.1-3.62-32.98a18 18 0 0 1 5.7-1.4q25.36-2.04 50.78-3.1c-.41 5.33-.18 10.52 2.09 15.46a26.7 26.7 0 0 0 18.62 15.04c4.89.87 9.94.6 14.61-1.13 8.19-2.8 14.36-9.94 16.48-18.26.92-3.9.66-7.59.54-11.55" fill="white"/><path d="M116.33 57.47c2.01-.23 3.8.3 5.74.68 4.2 9.05 4.82 19.93 3.38 29.69a55 55 0 0 1-23.63 36.48 54.8 54.8 0 0 1-37.51 8.8 54.7 54.7 0 0 1-38.25-23.15c-6.82-9.7-10.02-21.43-10-33.24 6.52-3.27 13.17-3.72 20.48-5.47 20.5-4.17 41.07-8.1 61.75-11.22 6-1 11.97-2.04 18.04-2.57" fill="black"/><path d="M118.01 62.86c1.44 5.27 2.74 10.43 2.6 15.94a51 51 0 0 1-8.31 27c-9.89 15.06-28.07 23.77-46.01 21.87a49.7 49.7 0 0 1-32.17-16.71c-7.5-8.47-11.57-19.33-12.24-30.58 14.45-3.54 29.14-6.22 43.76-9 1.32 6.48 4.55 12.27 10.1 16.02 9.05 6.32 21.93 5.38 29.9-2.26 6.13-5.72 8.05-13.57 7.2-21.73q2.59-.3 5.17-.55" fill="white"/></g><g id="eyebrows-variant07-a634859d"><path d="M136.39 44.35c.66 4.64-1.5 9.35-4.2 13-3.6 4.46-7.82 8.36-12.86 11.13-7.66 4.35-15.96 7.7-24.19 10.81-23.79 8.79-48.56 15.1-73.52 19.48-3.35.54-6.97 1.5-10.36 1.1-1.92-.91-2-2.81-1.1-4.51 2.33-1.8 5.48-2.72 8.18-3.9q53.92-22.06 107.8-44.19c3.36-1.25 6.59-3.38 10.25-2.92m26.94.15c49.32 7.6 98.68 15.15 148 22.75 2.6.42 5.34.58 7.82 1.4 2.44 1.15 1.7 5.05-.96 5.27-9.59.95-19.18 1.82-28.83 1.95-15.39.1-30.64.32-45.98-1.18-20.9-1.64-42.24-4.6-62.25-11.06-6.97-2.41-14.88-5.46-20.27-10.64-1.8-1.9-4.1-4.28-3.17-7.13 1.2-2.13 3.6-1.6 5.61-1.36" fill="black"/></g><g id="mouth-variant25-a634859d"><path d="M129.31 23.44c10.94 1.36 21.85 6.96 27.22 16.95 3.39 6.26 4.89 14.23 3.29 21.22-1.45 10.35-7.52 20.05-14.5 27.62a77 77 0 0 1-44.8 23.04 93 93 0 0 1-42.88-3c-8.75-2.8-16.6-7.54-23.8-13.16-8.32-6.76-15.8-15.35-19.6-25.48a33 33 0 0 1-1.76-17.28c1.2-6.9 6.43-12.62 12.8-15.26a37 37 0 0 1 21.2-1.83c9.02 1.2 16.75 5.04 24.7 9.17 14.67-15.16 36.94-24.58 58.13-22" fill="black"/><path d="M124.49 28.95c8.81.31 17.43 3.3 23.68 9.68-3 3.63-6.83 6.32-11 8.45-1.69.91-3.64 1.7-5.06 3-2.4 2.96-3.6 8.2-6.6 10.48-3.53-1.12-6.77-3.83-9.92-5.8a175 175 0 0 1-44.04 4.58 179 179 0 0 1-32.94-2.47c-1.8-.27-4.1-.99-5.85-.33-2.18 1.44-3.94 3.6-5.8 5.41q-2.78-4.25-5.47-8.55l-2.73-1.25c2.73-6 8.37-9.5 14.77-10.37 11.68-1.64 24.1 2.63 34 8.6 1.97 1.02 3.61 2.33 5.8.88 2.83-2.16 5.16-4.92 8-7.08 11.96-9.59 27.77-15.96 43.23-15.23" fill="white"/><path d="M151.83 43.72a29.2 29.2 0 0 1 2.14 17.66c-1.97 9.52-7.06 17.79-13.83 24.66-10.82 11.28-26.42 18.1-41.67 20.62-11.17 1.37-23.03 1.31-33.94-1.69-14.7-3.87-28.12-12.06-37.6-24.04-5.22-6.78-9.17-14.14-9.37-22.9 2.6 2.67 3.87 6.23 6.3 8.96 4.22 3.22 7.74-2.17 10.52-4.7 17.63 2.5 36.37 4.34 54.1 2.34 8.82-.4 17.49-1.87 26.14-3.56 3.7 1.43 8.33 5.92 12.69 4.94 6.04-2.25 6.06-11.84 12.26-13.6a43 43 0 0 0 10.12-6.83z" fill="#8F2E45"/></g><g id="glasses-variant01-a634859d"><path d="M274.49 1c10.67-.27 21.35-.05 32.02-.25 13.97-.61 27.98-.37 41.98-.52 3.87.15 9-.18 12.2 2.3 2.37 1.64 2.23 5.6 2.36 8.15-.11 4.33-.28 9.38-2.31 13.3-5.07 1.98-11.44 1.25-16.84 1.91.43 12.26 1.67 24.56 1.31 36.83-.7 13.9-3.67 28-10.34 40.32-8.1 13.04-19.9 24.39-33.54 31.5-10.42 5.39-21.75 7.4-33.39 7.79-6.22.19-12.08.49-18.2-.84-9.49-2.04-18.89-4.45-26.97-10.06-11.14-7.58-19.27-18.77-25.4-30.6-6.6-13.57-10.15-29.24-13.27-43.94-.53-2.3-2.38-3.48-4.35-4.45-6.63-2.95-14.93-.5-18.8 5.6-.8 2.4-.9 5.14-1.16 7.65-.62 7.6-2.25 15.33-3.88 22.8-3.12 13.57-9 26.3-16.8 37.82-4.29 5.79-9.69 11.42-16.16 14.8-10.54 5.75-22.3 10.1-34.42 10.29-7.24-.2-14.15-.4-21.12-2.5-5.48-1.33-10.5-4.8-15.16-7.94-6.4-4.4-11.06-10.3-15.28-16.72A111 111 0 0 1 24.68 97.5c-2.84-9.44-5.24-18.78-5.2-28.72-4.54.67-9.38 2.24-13.98 1.96-4.36-.8-5.31-7.5-5.5-11.08.13-2.39-.16-6.76 2.69-7.68 21.6-9.82 44.44-17.06 67.54-22.42 17.03-3.7 34.73-8.24 52.27-6.65 11.18.99 22.83 3.97 31.72 11.1 3.2 2.4 5.43 6.84 9.38 7.6 7.08 1.83 14.45-1.23 20.9-3.96 3.62-10 10-17.34 19.05-22.82 6.29-3.84 13.67-6.15 20.7-8.28 16.76-4.03 33.14-4.65 50.24-5.5" fill="black"/><path d="M12.59 62.85c1.21-1.2 3.4 0 2.44 1.64-1.2 1.2-3.4.01-2.44-1.64" fill="black"/><ellipse cx="310.49" cy="42.1899" rx="14" ry="10.5" fill="white"/><ellipse cx="116.49" cy="60.7965" rx="11" ry="8.10654" fill="white"/></g><clipPath id="clip-a634859d"><rect width="400" height="400" rx="0" ry="0"/></clipPath></defs><g clip-path="url(#clip-a634859d)"><rect width="400" height="400" fill="#ecad80"/><use transform="translate(36.7 101.2)" href="#eyes-variant18-a634859d"/><use transform="translate(36.64 29.5)" href="#eyebrows-variant07-a634859d"/><use transform="translate(114.51 217.6)" href="#mouth-variant25-a634859d"/><use transform="translate(15.51 93.31)" href="#glasses-variant01-a634859d"/></g></svg>