<svg xmlns="http://www.w3.org/2000/svg" viewBox="0 0 400 400" fill="none" shape-rendering="auto" aria-hidden="true" width="512" height="512"><metadata xmlns:rdf="http://www.w3.org/1999/02/22-rdf-syntax-ns#" xmlns:xsi="http://www.w3.org/2001/XMLSchema-instance" xmlns:dc="http://purl.org/dc/elements/1.1/" xmlns:dcterms="http://purl.org/dc/terms/"><rdf:RDF><rdf:Description><dc:title>Adventurer Neutral</dc:title><dc:creator>Lisa Wischofsky</dc:creator><dc:source xsi:type="dcterms:URI">https://www.figma.com/community/file/1184595184137881796</dc:source><dcterms:license xsi:type="dcterms:URI">https://creativecommons.org/licenses/by/4.0/</dcterms:license><dc:rights>Remix of “Adventurer Neutral” (https://www.figma.com/community/file/1184595184137881796) by “Lisa Wischofsky”, licensed under “CC BY 4.0” (https://creativecommons.org/licenses/by/4.0/)</dc:rights></rdf:Description></rdf:RDF></metadata><defs><g id="eyes-variant02-6ae32c39"><path d="M243.31.9a65.3 65.3 0 0 1 43.93 18.98c5.76 5.6 9.95 12.3 13.6 19.43 7.87-5.1 15.8-10.08 23.76-15.03a51 51 0 0 1 3.56 3.46c-3.17 3.52-7.07 5.4-10.96 7.93q-7.17 4.53-14.3 9.08c3.17 10 4.53 20.39 2.8 30.8a64.8 64.8 0 0 1-20.75 38.94 64.6 64.6 0 0 1-42.65 16.84 64.5 64.5 0 0 1-36.9-10.63A65.7 65.7 0 0 1 179 86.12c-4.57-14.5-4.06-30.74 1.79-44.81A65 65 0 0 1 208.91 9.4c10.31-6.04 22.5-8.85 34.4-8.5" fill="black"/><path d="M233.57 7.06c14.65-1.77 29.27 1.62 41.4 10.04a59.45 59.45 0 0 1 20.4 73.64c-6.13 13.64-17.68 24.9-31.6 30.43a58 58 0 0 1-32.47 3.67 59.6 59.6 0 0 1-40.35-26.68 61.4 61.4 0 0 1-9.37-29.31A60.4 60.4 0 0 1 195 28.49a59.5 59.5 0 0 1 38.58-21.43" fill="white"/><path d="M98.35 30.75a55 55 0 0 1 23.87 27.2c3.49 8.5 4.54 17.78 3.6 26.9a54.8 54.8 0 0 1-27.1 41.38c-16.48 9.64-37.65 9.77-54.3.4a55 55 0 0 1-27.4-38.83c-1.8-8.9-.63-17.67 1.9-26.3C13.1 57.9 6.8 54.9 1.18 50.97c-1.95-1.1-1.44-4.12.68-4.64 1.65-.48 3.18.59 4.6 1.28q7.23 4.25 14.48 8.47c6.58-14.13 18.65-25.2 33.59-29.87a55.2 55.2 0 0 1 43.82 4.57" fill="black"/><path d="M62.57 30.09a49.3 49.3 0 0 1 42.11 12.35 50 50 0 0 1 15.93 36.37 51.4 51.4 0 0 1-6.07 23.26 49.5 49.5 0 0 1-33.98 24.9c-8.07 1.72-16.23 1.1-24.08-1.36-19.1-5.88-33.3-23.78-34.38-43.8-.98-12.78 3.48-25.71 11.85-35.4a49.5 49.5 0 0 1 28.62-16.3" fill="white"/><path d="M211.57 43c7.37-.9 15.21 1.77 20.25 7.28a24.2 24.2 0 0 1 6.41 15.47A23.9 23.9 0 0 1 229.5 85c-6.96 5.83-17.24 6.92-25.36 2.96-8.64-4.1-14.23-13.6-13.38-23.18.7-11.14 9.74-20.5 20.81-21.78M42.84 57.64c11.4-3.87 24.34 3 27.54 14.6 3.77 11.68-4.02 24.85-16.03 27.31-10.63 2.65-22.2-3.54-25.66-13.94-3.92-11.13 2.75-24.59 14.15-27.97" fill="black"/></g><g id="eyebrows-variant07-6ae32c39"><path d="M136.39 44.35c.66 4.64-1.5 9.35-4.2 13-3.6 4.46-7.82 8.36-12.86 11.13-7.66 4.35-15.96 7.7-24.19 10.81-23.79 8.79-48.56 15.1-73.52 19.48-3.35.54-6.97 1.5-10.36 1.1-1.92-.91-2-2.81-1.1-4.51 2.33-1.8 5.48-2.72 8.18-3.9q53.92-22.06 107.8-44.19c3.36-1.25 6.59-3.38 10.25-2.92m26.94.15c49.32 7.6 98.68 15.15 148 22.75 2.6.42 5.34.58 7.82 1.4 2.44 1.15 1.7 5.05-.96 5.27-9.59.95-19.18 1.82-28.83 1.95-15.39.1-30.64.32-45.98-1.18-20.9-1.64-42.24-4.6-62.25-11.06-6.97-2.41-14.88-5.46-20.27-10.64-1.8-1.9-4.1-4.28-3.17-7.13 1.2-2.13 3.6-1.6 5.61-1.36" fill="black"/></g><g id="mouth-variant27-6ae32c39"><path d="M130.65 16.26c.6 6.97-.81 13.29-1.53 20.14a244 244 0 0 1-19.15 70.23c-3.65 7.33-6.72 15.74-13.94 20.34-3.86 2.8-9.11 1.94-13.2.16-4.48-2.23-8.94-4.98-12.4-8.63a171 171 0 0 1-29.95-42.13C33.72 63.83 28.83 50.6 23.36 37.5c-.92-2.1-1.13-4.11 1.07-5.43 4.38-.1 8.65 1.4 13.06 1.45 9.89.33 19.99.52 29.8-.88 17.7-2.04 35.1-7.15 51.55-13.9 4.22-1.53 7.13-4.3 11.81-2.48" fill="black"/><path d="M125.41 22.4c-2.1 16.35-4.16 32.05-8.89 47.96-9.07-.7-18.45 2.6-26.46 6.6-10.54 5.5-21.2 13.5-27.26 23.9-7.57-9.81-13.74-20.42-19.35-31.44-5.4-10.14-9.36-20.75-13.97-31.24 9.45.8 18.49 2.05 27.99 1 23.21-.72 46.69-7.68 67.94-16.78" fill="#8F2E45"/><path d="M114.68 76.5c-3.83 13.3-8.82 26.4-15.55 38.52-1.62 2.9-3.68 5.84-6.7 7.4-4.1 1.7-9.13-1.2-12.46-3.5-5.34-3.39-8.58-8.3-12.86-12.76 1.94-5.34 6.21-9.98 10.4-13.7 7.82-6.68 17.1-12.04 26.99-14.9 3.34-1.04 6.72-1.16 10.18-1.06" fill="#EA869E"/></g><clipPath id="clip-6ae32c39"><rect width="400" height="400" rx="0" ry="0"/></clipPath></defs><g clip-path="url(#clip-6ae32c39)"><rect width="400" height="400" fill="#f2d3b1"/><use transform="translate(36.7 101.2)" href="#eyes-variant02-6ae32c39"/><use transform="translate(36.64 29.5)" href="#eyebrows-variant07-6ae32c39"/><use transform="translate(114.51 217.6)" href="#mouth-variant27-6ae32c39"/></g></svg>