<svg xmlns="http://www.w3.org/2000/svg" viewBox="0 0 400 400" fill="none" shape-rendering="auto" aria-hidden="true" width="512" height="512"><metadata xmlns:rdf="http://www.w3.org/1999/02/22-rdf-syntax-ns#" xmlns:xsi="http://www.w3.org/2001/XMLSchema-instance" xmlns:dc="http://purl.org/dc/elements/1.1/" xmlns:dcterms="http://purl.org/dc/terms/"><rdf:RDF><rdf:Description><dc:title>Adventurer Neutral</dc:title><dc:creator>Lisa Wischofsky</dc:creator><dc:source xsi:type="dcterms:URI">https://www.figma.com/community/file/1184595184137881796</dc:source><dcterms:license xsi:type="dcterms:URI">https://creativecommons.org/licenses/by/4.0/</dcterms:license><dc:rights>Remix of “Adventurer Neutral” (https://www.figma.com/community/file/1184595184137881796) by “Lisa Wischofsky”, licensed under “CC BY 4.0” (https://creativecommons.org/licenses/by/4.0/)</dc:rights></rdf:Description></rdf:RDF></metadata><defs><g id="eyes-variant01-05172e98"><path d="M274.25 9.85c11.85 6.92 21.04 17.51 26.71 29.97 5.93-3.13 11.67-6.68 17.68-9.63 1.8-.95 4.4.55 3.98 2.62.21 1.48-2.02 2.5-3.06 3.23-5.45 3-10.88 6.04-16.34 9.03 1.7 6.87 3.23 13.6 3.24 20.73-.06 12.85-3.69 25.61-10.87 36.3a66 66 0 0 1-31.79 25.28 66 66 0 0 1-38.5 2.03 65 65 0 0 1-40-29.6 63 63 0 0 1-9.3-33 64.4 64.4 0 0 1 15.4-42.92c9.58-11.27 23.24-19.42 37.87-21.9a65.2 65.2 0 0 1 44.98 7.83" fill="black"/><path d="M233.5 7.07a59.7 59.7 0 0 1 44.36 12.14c14.46 11.18 23.27 29.28 22.8 47.59.03 22.44-13.8 43.9-34.2 53.21-10.95 5.12-23.23 7.03-35.16 4.86a59.6 59.6 0 0 1-40.74-27.3 61.5 61.5 0 0 1-8.98-28.72 60.4 60.4 0 0 1 13.88-40.9A59.5 59.5 0 0 1 233.5 7.07" fill="white"/><path d="M74.3 23.71a55 55 0 0 1 34.44 14.65c10.09 9.4 16.54 22.67 17.29 36.47a54.6 54.6 0 0 1-8.01 32.68 55 55 0 0 1-36.73 25.17 54.94 54.94 0 0 1-63.7-42.04c-2.41-9.41-1.61-18.94.99-28.2a606 606 0 0 0-11.32-4.5c-1.9-.78-4-1.44-5.35-3.08-.4-2.4.76-3.92 3.2-3.62 5.2 1.25 10 4.21 15.18 5.57 1.4-1.65 2.24-3.8 3.3-5.68 10.03-17.8 30.32-28.73 50.7-27.4" fill="black"/><path d="M60.8 30.46c18.63-4.25 38.76 3.44 50.01 18.81a51 51 0 0 1 9.73 26.52c.67 13.6-4.44 27.48-14.06 37.18a49.4 49.4 0 0 1-30.18 14.66c-19.94 2.3-40.08-8.85-49-26.78a49.3 49.3 0 0 1 2.36-48.68 49.3 49.3 0 0 1 31.15-21.7" fill="white"/><path d="M262.58 42.23c6.24-.76 12.7.82 17.74 4.57 6.3 4.65 10.27 12.14 10.18 20.01a28 28 0 0 1-4.57 13.62c-4.1 6.13-11.27 10.06-18.6 10.54A24.6 24.6 0 0 1 246.08 81c-6.02-7.97-6.24-19.8-.63-28.03a24.7 24.7 0 0 1 17.13-10.74M92.75 55.29c7.22-.86 14.8 2 19.61 7.47a22 22 0 0 1 5.74 16.04c.04 12-10.69 22.8-22.8 22.28-12.1.1-22.88-10.05-22.87-22.26-.7-11.8 8.67-22.32 20.32-23.53" fill="black"/></g><g id="eyebrows-variant05-05172e98"><path d="M207.6 32.86c6.17-.42 13.1-.6 18.45 2.95 3.68 2.44 5.4 6.35 4.48 10.74-1.55 6.16-6.62 10.92-11.61 14.5a67.6 67.6 0 0 1-30.57 11.53c-5.6.53-12.5.43-17.47-2.55-3.63-2.13-5.9-6.12-5.2-10.36 1.02-5.75 5.49-10.5 9.94-13.96 9.19-7.03 20.55-11.34 31.98-12.85M76.58 49.73c9.1-.36 18.3.51 26.3 5.24 3.86 2.26 7.35 5.9 7.9 10.49.34 4.21-1.96 7.8-5.2 10.27-4.51 3.55-9.86 5-15.42 5.99-9.95 1.02-20.55.32-29.48-4.58-3.87-2.3-7.88-5.85-8.47-10.57-.73-4.27 2.02-8.47 5.4-10.84 5.4-3.87 12.42-5.7 18.97-6" fill="black"/></g><g id="mouth-variant26-05172e98"><path d="M123.49 15.83c13.39-.24 28.7 3.46 38.6 12.98 5.97 5.58 9.72 13.37 9.9 21.58.32 10.21-3.84 19.58-9.9 27.58-9.03 11.85-21.86 20.72-35.46 26.57-7.32 2.84-14.4 5.7-22.15 7.24a86.3 86.3 0 0 1-50.03-5.31c-13.98-6.01-27.24-14.24-38.31-24.7-5.42-5.31-10.58-11.7-13.28-18.85C.83 57.44.52 50.95 4.08 46c3.7-5.37 9.99-7.74 16.18-8.84 12.6-1.77 24.45.42 36.57 3.76 7.36-6.86 15.88-12.06 25.02-16.21 12.99-5.74 27.38-9.28 41.64-8.9" fill="black"/><path d="M148.96 26.75c-3.47 2.67-7.33 4.74-10.83 7.34-4.3 4.07-7.6 10.96-12.77 14.1-5.16.8-10.5-3.4-15.18-1.2a175 175 0 0 1-28.49 7.9c-14.2 2.56-29.5 3.76-43.7.9-4.3-1.1-7.16 1.31-11.5 1.87-4.36-4.22-7.52-9.2-12.72-12.6 12.77-5.3 28.77-1.98 41.64 1.52 3.92 1.25 6.04-2.46 8.8-4.48 13.5-10.7 30.2-17.52 47.26-19.84 12.65-1.87 25.63-.74 37.43 4.4" fill="white"/><path d="M154.45 30.3c7.13 4.3 11.65 12.84 11.82 21.1-.18 7.44-2.97 14-6.8 20.24-6.37-2.56-13.17-3.3-20-2.88-14.35.89-28.53 4.42-41.9 9.67-9.04 3.64-18.05 8.23-25.74 14.27a32.5 32.5 0 0 0-8.76 10.38c-7.74-2.15-14.6-5.75-21.53-9.73-9.94-5.85-19.02-12.62-26.5-21.47-3.77-4.64-7.55-10.34-7.78-16.49-.14-2.33.9-4.43 1.72-6.55 5.4 3.65 9.36 8.64 14.22 12.85 4 3.4 9.2-.7 13.75 0 5.8.94 11.66 1.4 17.53 1.72 20.42-.25 40.58-4.3 59.65-11.55 4.16.86 9.89 2.73 13.97 1.05 4.92-2.84 8.62-8.58 12.18-12.9 1.47-1.76 3.8-2.93 5.7-4.18 2.9-1.75 5.49-4.02 8.47-5.62" fill="#8F2E45"/><path d="M142.49 74.58c4.54-.1 8.95.63 13.3 1.9-9.3 11.12-22.5 19.3-35.9 24.38-16.3 6.04-34.28 8.32-51.2 3.94a34 34 0 0 1 6.7-7.4c8.9-7.25 20.21-12.2 31-15.96 11.5-3.83 23.85-6.67 36-6.86" fill="#EA869E"/></g><clipPath id="clip-05172e98"><rect width="400" height="400" rx="0" ry="0"/></clipPath></defs><g clip-path="url(#clip-05172e98)"><rect width="400" height="400" fill="#f2d3b1"/><use transform="translate(36.7 101.2)" href="#eyes-variant01-05172e98"/><use transform="translate(36.64 29.5)" href="#eyebrows-variant05-05172e98"/><use transform="translate(114.51 217.6)" href="#mouth-variant26-05172e98"/></g></svg>